<svg t="1584260251958" class="icon" viewBox="0 0 1024 1024" version="1.1" xmlns="http://www.w3.org/2000/svg" p-id="3825" width="200" height="200"><path d="M7.669378 512.002556c0 282.769964 227.197651 511.997444 507.457172 511.997444 280.269746 0 507.457172-229.22748 507.457172-511.997444S795.396296 0 515.12655 0C234.867029 0 7.669378 229.232593 7.669378 512.002556z" fill="#e6e6e6" p-id="3826" data-spm-anchor-id="a313x.7781069.0.i6" class="selected"></path><path d="M793.678355 233.13375c15.08311 14.883706 15.08311 40.913575 0 55.802393l-509.594371 502.063043c-15.108674 14.853029-41.532238 14.853029-56.6358 0-15.08311-14.878593-15.08311-40.918688 0-55.802394l509.589259-502.063042c15.108674-14.858141 41.537351-14.858141 56.640912 0z" fill="#ffffff" p-id="3827" data-spm-anchor-id="a313x.7781069.0.i4" class="selected"></path><path d="M236.58497 240.823579c14.658738-14.408205 40.294912-14.408205 54.953649 0l494.45502 486.836771c14.62806 14.433769 14.62806 39.681361 0 54.110018-14.658738 14.403092-40.294912 14.403092-54.958762 0L236.58497 294.933597c-14.633173-14.438882-14.633173-39.681361 0-54.110018z" fill="#ffffff" p-id="3828" data-spm-anchor-id="a313x.7781069.0.i5" class="selected"></path></svg>