<svg width="158" height="185" viewBox="0 0 158 185" fill="none" xmlns="http://www.w3.org/2000/svg">
<g clip-path="url(#clip0)">
<path d="M71.7076 49.1594C76.3087 47.1617 81.5175 47.1617 86.0318 49.1594C91.8483 51.765 101.311 56.542 115.288 65.2274C141.245 81.3824 150.881 98.7533 146.888 119.425C142.721 141.225 112.683 150.605 78.8263 150.605C44.9692 150.605 15.0186 141.225 10.7648 119.425C6.85816 98.7533 16.4944 81.3824 42.4516 65.2274C56.4285 56.542 65.8911 51.765 71.7076 49.1594Z" fill="#97CFE6" stroke="#2A68A9" stroke-width="3.6631" stroke-miterlimit="10" stroke-linecap="round" stroke-linejoin="round"/>
<path d="M78.8264 142.441C107.402 142.441 130.567 129.298 130.567 113.084C130.567 96.871 107.402 83.7275 78.8264 83.7275C50.2508 83.7275 27.0857 96.871 27.0857 113.084C27.0857 129.298 50.2508 142.441 78.8264 142.441Z" fill="white"/>
<path d="M105.044 60.0165C105.044 60.0165 107.041 52.8945 117.632 45.9461C128.223 38.9977 127.615 28.8358 132.216 27.3592C136.731 25.8827 145.325 31.7888 134.647 48.0306C133.171 50.202 143.415 51.939 138.814 58.3663C134.908 63.7513 120.41 52.8076 115.114 65.7489C115.114 65.7489 107.996 66.7043 105.044 60.0165Z" fill="#11A7A7"/>
<path d="M52.6955 60.0165C52.6955 60.0165 50.6988 52.8944 40.1076 45.9461C29.5164 38.9977 30.1241 28.8358 25.523 27.3592C21.0087 25.8827 12.4142 31.7888 23.0922 48.0306C24.568 50.202 14.3241 51.939 18.9252 58.3663C22.8317 63.7512 37.3296 52.8944 42.6252 65.8358C42.6252 65.8358 49.8307 66.7043 52.6955 60.0165Z" fill="#11A7A7"/>
<path d="M124.75 126.547C122.667 123.16 118.934 120.814 114.593 120.814C107.996 120.814 102.7 126.113 102.7 132.714C102.7 134.885 103.308 136.883 104.263 138.62C113.031 135.84 120.149 131.671 124.75 126.547Z" fill="#E0787A"/>
<path d="M42.8857 120.901C38.6318 120.901 34.812 123.16 32.7285 126.634C37.3296 131.671 44.4483 135.927 53.1296 138.707C54.0846 136.969 54.6922 134.972 54.6922 132.8C54.7791 126.199 49.4835 120.901 42.8857 120.901Z" fill="#E0787A"/>
<path d="M105.044 60.0165C105.044 60.0165 107.041 52.8944 117.632 45.9461C128.223 38.9977 127.615 28.8358 132.216 27.3592C136.731 25.8827 145.325 31.7888 134.647 48.0306C133.171 50.202 143.415 51.939 138.814 58.3663C134.908 63.7512 120.497 52.547 115.201 65.4883" stroke="#2A68A9" stroke-width="3.6631" stroke-miterlimit="10" stroke-linecap="round" stroke-linejoin="round"/>
<path d="M52.6955 60.0165C52.6955 60.0165 50.6988 52.8944 40.1076 45.9461C29.5164 38.9977 30.1241 28.8358 25.523 27.3592C21.0087 25.8827 12.4142 31.7888 23.0922 48.0306C24.568 50.202 14.3241 51.939 18.9252 58.3663C22.8317 63.7512 37.2427 52.547 42.5383 65.4883" stroke="#2A68A9" stroke-width="3.6631" stroke-miterlimit="10" stroke-linecap="round" stroke-linejoin="round"/>
<path d="M105.912 102.488L103.308 100.751C102.439 101.533 102.266 100.577 102.266 101.793V112.911C102.266 115.169 104.089 116.993 106.346 116.993C108.603 116.993 110.426 115.169 110.426 112.911L110.253 102.488H105.912Z" fill="#2A68A9"/>
<path d="M100.703 96.4082C102.439 101.619 105.912 102.575 114.593 101.619" stroke="#2A68A9" stroke-width="3.6631" stroke-miterlimit="10" stroke-linecap="round" stroke-linejoin="round"/>
<path d="M52.9559 102.488L55.5603 100.751C56.4285 101.533 56.6021 100.577 56.6021 101.793V112.911C56.6021 115.169 54.779 116.993 52.5219 116.993C50.2647 116.993 48.4417 115.169 48.4417 112.911L48.6153 102.488H52.9559Z" fill="#2A68A9"/>
<path d="M58.1648 96.4082C56.4285 101.619 52.956 102.575 44.2747 101.619" stroke="#2A68A9" stroke-width="3.6631" stroke-miterlimit="10" stroke-linecap="round" stroke-linejoin="round"/>
<path d="M72.2285 127.676C72.2285 127.676 78.9131 121.249 85.5977 127.676" stroke="#E0787A" stroke-width="3.1398" stroke-miterlimit="10" stroke-linecap="round" stroke-linejoin="round"/>
<path d="M98.7932 143.657C98.7932 143.657 125.011 163.373 124.924 181.178C124.837 198.984 107.214 194.033 107.214 194.033L98.7932 143.657Z" fill="#97CFE6"/>
<path d="M98.7932 143.657C98.7932 143.657 125.011 163.373 124.924 181.178C124.837 198.984 107.214 194.033 107.214 194.033L98.7932 143.657Z" stroke="#2A68A9" stroke-width="3.4164" stroke-miterlimit="10" stroke-linecap="round" stroke-linejoin="round"/>
<path d="M57.2096 143.657C57.2096 143.657 30.992 163.373 31.0788 181.178C31.1656 198.984 48.7887 194.033 48.7887 194.033L57.2096 143.657Z" fill="#97CFE6"/>
<path d="M57.2096 143.657C57.2096 143.657 30.992 163.373 31.0788 181.178C31.1656 198.984 48.7887 194.033 48.7887 194.033L57.2096 143.657Z" stroke="#2A68A9" stroke-width="3.4164" stroke-miterlimit="10" stroke-linecap="round" stroke-linejoin="round"/>
<path d="M112.857 184.913C108.516 161.549 96.97 145.307 96.97 145.307L77.6107 140.096L58.2513 145.307C58.2513 145.307 46.6183 161.549 42.3645 184.913" fill="#97CFE6"/>
<path d="M112.857 184.913C108.516 161.549 96.97 145.307 96.97 145.307L77.6107 140.096L58.2513 145.307C58.2513 145.307 46.6183 161.549 42.3645 184.913" stroke="#2A68A9" stroke-width="3.5984" stroke-miterlimit="10" stroke-linecap="round" stroke-linejoin="round"/>
<path d="M74.6592 146.089C74.6592 142.615 72.2284 139.748 68.9295 139.054V138.967H38.8921C29.4295 138.967 21.7031 146.697 21.7031 156.164C21.7031 165.631 29.4295 173.361 38.8921 173.361C48.3548 173.361 56.0811 165.631 56.0811 156.164C56.0811 155.209 55.9943 154.253 55.8207 153.298H68.9295V153.124C72.2284 152.516 74.6592 149.563 74.6592 146.089Z" fill="#97CFE6" stroke="#2A68A9" stroke-width="3.6631" stroke-miterlimit="10" stroke-linecap="round" stroke-linejoin="round"/>
<path d="M80.7361 146.089C80.7361 142.615 83.1669 139.748 86.4658 139.054V138.967H116.503C125.966 138.967 133.692 146.697 133.692 156.164C133.692 165.631 125.966 173.361 116.503 173.361C107.04 173.361 99.3141 165.631 99.3141 156.164C99.3141 155.209 99.4009 154.253 99.5745 153.298H86.4658V153.124C83.1669 152.516 80.7361 149.563 80.7361 146.089Z" fill="#97CFE6" stroke="#2A68A9" stroke-width="3.6631" stroke-miterlimit="10" stroke-linecap="round" stroke-linejoin="round"/>
</g>
<defs>
<clipPath id="clip0">
<rect width="158" height="185" fill="white"/>
</clipPath>
</defs>
</svg>
