<svg t="1584007631705" class="icon" viewBox="0 0 1024 1024" version="1.1" xmlns="http://www.w3.org/2000/svg" p-id="13244" width="200" height="200"><path d="M0 0m227.555556 0l568.888888 0q227.555556 0 227.555556 227.555556l0 568.888888q0 227.555556-227.555556 227.555556l-568.888888 0q-227.555556 0-227.555556-227.555556l0-568.888888q0-227.555556 227.555556-227.555556Z" fill="#1296db" p-id="13245" data-spm-anchor-id="a313x.7781069.0.i9" class=""></path><path d="M830.577778 571.448889L510.293333 251.278222a24.348444 24.348444 0 0 0-17.180444-7.168H251.904A24.348444 24.348444 0 0 0 227.555556 268.458667v241.208889c0 6.485333 2.616889 12.686222 7.168 17.237333l320.170666 320.284444a24.405333 24.405333 0 0 0 34.474667 0l241.208889-241.208889a24.405333 24.405333 0 0 0 0-34.531555zM412.216889 422.115556a23.324444 23.324444 0 0 1-6.542222 6.542222c-49.891556 33.28-103.537778-20.366222-70.314667-70.257778a23.381333 23.381333 0 0 1 6.542222-6.542222c49.834667-33.28 103.537778 20.48 70.314667 70.257778z" fill="#ffffff" p-id="13246" data-spm-anchor-id="a313x.7781069.0.i6" class="selected"></path></svg>