<svg t="1584007533296" class="icon" viewBox="0 0 1024 1024" version="1.1" xmlns="http://www.w3.org/2000/svg" p-id="6656" width="200" height="200"><path d="M192.2 63.9h639.7c70.7 0 127.9 57.3 127.9 127.9v639.7c0 70.7-57.3 127.9-127.9 127.9H192.2c-70.7 0-127.9-57.3-127.9-127.9V191.9c-0.1-70.7 57.2-128 127.9-128z" fill="#739DF6" p-id="6657"></path><path d="M502 559.8c45.8-26.9 76.3-76.5 76.3-133.4 0-85.4-69-154.5-154.1-154.5s-154.4 68.9-154.4 154.2c0 56.9 30.8 106.8 76.3 133.4-80 26-137.9 101.6-137.9 190.7v17.4H640v-17.4c0-88.8-57.7-164.3-138-190.4z" fill="#FFFFFF" p-id="6658"></path><path d="M680.9 481.7c44.9-27.1 74.8-77 74.8-134.3 0-85.9-67.6-155.5-151.1-155.5-44.3 0-81.1 19.7-108.6 50.5 3.9 1.2 7.8 2.8 11.4 4.6 22.4 9.9 42.5 23.7 59.8 41.6 17.4 17.9 30.8 38.5 40.4 61.6 9.9 24 14.7 49.3 14.7 75.4 0 34.5-9 68.4-25.7 97.9-5.7 9.9-12 19.1-19.2 27.4 3 1.8 6 4 8.7 6.2 19.4 14.5 39.8 32 53.9 52 14.7 20.3 22.7 39.4 30.5 63.1 1.5 5.2 3.3 10.2 4.5 15.4h140.9V670c0.6-89.2-56.3-161.9-135-188.3z" fill="#FFFFFF" p-id="6659"></path></svg>