<svg t="1584007456633" class="icon" viewBox="0 0 1024 1024" version="1.1" xmlns="http://www.w3.org/2000/svg" p-id="2105" width="200" height="200"><path d="M0 0m102.4 0l819.2 0q102.4 0 102.4 102.4l0 819.2q0 102.4-102.4 102.4l-819.2 0q-102.4 0-102.4-102.4l0-819.2q0-102.4 102.4-102.4Z" fill="#F67016" p-id="2106"></path><path d="M331.0336 330.9056a133.1968 133.1968 0 1 0 266.3936 0 133.4016 133.4016 0 0 0-266.3936 0zM204.8 748.7744c0 5.3248 0.4096 15.5648 0.4096 15.5648h350.1056v-79.1552a44.288 44.288 0 0 1 38.5536-43.6736h31.5648v-41.7536a31.2576 31.2576 0 0 1 29.7216-25.6 262.2208 262.2208 0 0 0-189.2864-69.12c-175.2576 0-261.0688 106.8544-261.0688 243.7376z m487.9104-134.5536a24.9856 24.9856 0 0 0-25.2416 24.5504v43.6736H622.592a24.9856 24.9856 0 0 0-25.2416 24.5504v32.768a24.9856 24.9856 0 0 0 25.2416 24.5504h44.8768v43.6736a24.9856 24.9856 0 0 0 25.2416 24.5504h33.664a24.9856 24.9856 0 0 0 25.2416-24.5504v-43.648h44.8768a24.9856 24.9856 0 0 0 25.2416-24.5504v-32.768a24.9856 24.9856 0 0 0-25.2416-24.5504h-44.9024v-43.6992a24.9856 24.9856 0 0 0-25.2416-24.5504z" fill="#FFFFFF" p-id="2107"></path></svg>