<svg t="1585490305823" class="icon" viewBox="0 0 1024 1024" version="1.1" xmlns="http://www.w3.org/2000/svg" p-id="2302" width="20" height="20"><path d="M221.184053 418.534282c-51.625798 0-93.475951 41.847084-93.475951 93.476975 0 51.626821 41.850154 93.456508 93.475951 93.456508 51.607378 0 93.456508-41.829687 93.456508-93.456508C314.640562 460.381365 272.791431 418.534282 221.184053 418.534282zM512.000512 418.534282c-51.647287 0-93.476975 41.847084-93.476975 93.476975 0 51.626821 41.829687 93.456508 93.476975 93.456508 51.607378 0 93.476975-41.829687 93.476975-93.456508C605.476463 460.381365 563.606867 418.534282 512.000512 418.534282zM802.814923 418.534282c-51.647287 0-93.476975 41.847084-93.476975 93.476975 0 51.626821 41.829687 93.456508 93.476975 93.456508 51.627844 0 93.476975-41.829687 93.476975-93.456508C896.291898 460.381365 854.442768 418.534282 802.814923 418.534282z" p-id="2303"></path></svg>