<svg t="1584521168909" class="icon" viewBox="0 0 1024 1024" version="1.1" xmlns="http://www.w3.org/2000/svg" p-id="5447" width="200" height="200"><path d="M841.728 848.896c-52.224-110.08-429.568-101.888-286.208-269.312 47.104-55.296 96.768-130.048 96.768-209.92C652.288 225.28 556.032 107.52 437.76 107.52c-118.272 0-215.04 117.76-215.04 262.144 0 79.872 30.208 133.632 91.136 208.896 99.84 147.456-226.816 158.208-275.968 263.68-14.848 31.232-17.408 55.296-17.408 83.456 0 3.584-0.512 7.168 1.536 10.24 2.048 3.072 4.608 4.608 7.68 4.608h814.592c3.072 0 5.632-2.048 7.68-4.608 2.048-3.072 1.536-6.656 1.536-10.24 0.512-31.744-3.584-59.392-11.776-76.8z m0 0" p-id="5448" data-spm-anchor-id="a313x.7781069.0.i3" class="selected" fill="#ffffff"></path><path d="M985.6 504.32h-108.032V396.288c0-14.848-12.288-27.136-27.136-27.136s-27.136 12.288-27.136 27.136v108.032h-108.032c-14.848 0-27.136 12.288-27.136 27.136s12.288 27.136 27.136 27.136h108.032v108.032c0 14.848 12.288 27.136 27.136 27.136s27.136-12.288 27.136-27.136v-108.032h108.032c14.848 0 27.136-12.288 27.136-27.136s-12.288-27.136-27.136-27.136z m0 0" p-id="5449" data-spm-anchor-id="a313x.7781069.0.i4" class="selected" fill="#ffffff"></path></svg>