<svg t="1584005740223" class="icon" viewBox="0 0 1024 1024" version="1.1" xmlns="http://www.w3.org/2000/svg" p-id="25004" width="200" height="200"><path d="M860.423993 903.414621 521.048585 903.414621l-17.018605 0L163.673222 903.414621c-43.608194 0-34.051537-68.071352-34.051537-68.071352-1.046842-41.48074 34.051537-68.071352 34.051537-68.071352s178.687682-86.152149 204.214055-102.106516c20.774139-12.995989 30.148647-38.391379 32.972972-47.464011-60.643172-56.670697-118.060883-151.166885-118.060883-207.803813l0-85.088934c-2.12643-100.045577 108.438735-204.214055 204.214055-204.214055l34.036187 0c89.375563-1.064238 207.405747 99.912547 204.197682 204.214055l0 85.088934c0 46.499034-38.937824 147.278321-101.542674 207.239971 2.594081 8.575306 11.916401 34.766828 33.05586 48.028876 25.460882 15.954367 203.665563 102.106516 203.665563 102.106516s35.016515 26.590612 33.9533 68.071352C894.377292 835.344293 903.916553 903.414621 860.423993 903.414621zM826.489112 801.308105l-203.665563-102.107539c0 0-50.903344-22.334681-50.903344-68.071352l0.182149-0.066515 0-32.704866C639.291616 558.172599 674.20887 450.680423 674.20887 395.60506l0-82.895989c0-76.479859-85.819574-141.061736-157.083641-141.061736l-26.190499 0c-67.871807 0-157.082618 66.476017-157.082618 141.061736l0 82.895989c0 68.868507 62.355163 171.108053 119.108748 206.17471l0 29.349445 0 0c0 45.735647-51.036373 68.071352-51.036373 68.071352l-204.214055 102.107539c-24.463158 20.208251-17.017582 51.054793-17.017582 51.054793l323.338153 0 17.018605 0 322.408991 0C843.457576 852.361875 850.884732 821.516356 826.489112 801.308105z" fill="#1989fa" p-id="25005"></path></svg>