<svg t="1584005194901" class="icon" viewBox="0 0 1024 1024" version="1.1" xmlns="http://www.w3.org/2000/svg" p-id="20643" width="200" height="200"><path d="M796.424 903.416H99.672c-43.608 0-34.048-68.072-34.048-68.072-1.048-41.488 34.048-68.072 34.048-68.072S278.36 681.12 303.888 665.16c20.776-12.992 30.152-38.392 32.976-47.464-60.64-56.672-118.056-151.168-118.056-207.808v-85.08c-2.128-100.048 108.44-204.216 204.208-204.216h34.032c89.376-1.064 207.408 99.912 204.2 204.216v85.088c0 46.504-38.936 147.272-101.544 207.24 2.592 8.568 11.92 34.768 33.064 48.032 25.456 15.952 203.656 102.104 203.656 102.104s35.016 26.584 33.952 68.072c0 0 9.544 68.072-33.952 68.072z m-33.936-102.104L558.832 699.2s-50.904-22.336-50.904-68.08l0.176-0.064v-32.704c67.192-40.184 102.104-147.68 102.104-202.752v-82.888c0-76.48-85.816-141.064-157.08-141.064h-26.192c-67.872 0-157.08 66.48-157.08 141.064v82.896c0 68.864 62.352 171.112 119.112 206.176v29.344c0 45.736-51.032 68.08-51.032 68.08L133.72 801.32c-24.464 20.2-17.016 51.048-17.016 51.048h662.76c-0.008-0.008 7.416-30.856-16.976-51.056zM732 350h265v53H732z m53 142h212v52H785z m53 142h159v51H838z" fill="#1989fa" p-id="20644"></path></svg>