<svg t="1584006048451" class="icon" viewBox="0 0 1024 1024" version="1.1" xmlns="http://www.w3.org/2000/svg" p-id="27066" width="200" height="200"><path d="M512 907.478798c-55.584749 0-109.588312-10.946668-160.429505-32.353486-49.138377-20.79867-93.16831-50.476304-130.99513-88.303124C182.748545 748.995368 153.070911 704.843806 132.272241 655.827058c-21.528448-50.841193-32.353486-104.844756-32.353486-160.429505s10.946668-109.588312 32.353486-160.429505C153.070911 285.829671 182.748545 241.799739 220.575365 203.972918s81.856753-67.504454 130.99513-88.303123c50.841193-21.528448 104.844756-32.353486 160.429505-32.353487s109.588312 10.946668 160.429505 32.353487c49.138377 20.79867 93.16831 50.476304 130.99513 88.303123 37.82682 37.82682 67.504454 81.856753 88.303124 130.99513 21.528448 50.841193 32.353486 104.844756 32.353486 160.429505s-10.946668 109.588312-32.353486 160.429505c-20.79867 49.138377-50.476304 93.16831-88.303124 130.99513-37.82682 37.82682-81.856753 67.504454-130.99513 88.303124-50.841193 21.528448-104.844756 32.353486-160.429505 32.353486z m0-769.429148C314.959971 138.04965 154.652096 298.357525 154.652096 495.397553s160.307875 357.347904 357.347904 357.347904 357.347904-160.307875 357.347904-357.347904-160.307875-357.347904-357.347904-357.347903z" p-id="27067" fill="#000"></path><path d="M379.302055 666.408837c-7.05452 0-13.987409-2.797482-19.217484-7.905927-6.93289-6.81126-9.730372-16.784891-7.297779-26.272004l54.490082-215.284475c2.554223-9.852001 10.33852-17.636299 20.312151-19.947262l210.29766-49.503267c9.243853-2.189334 18.974225 0.608148 25.663855 7.419409 6.689631 6.81126 9.365483 16.541632 7.17615 25.785485l-50.841193 206.7704c-2.432593 9.608742-9.852001 17.27141-19.460743 19.825633l-214.06818 58.138971c-2.310963 0.608148-4.621927 0.973037-7.054519 0.973037z m76.869937-219.784772l-38.921487 153.739874 153.374985-41.59734L606.871125 411.108208l-150.699133 35.515857z" p-id="27068" fill="#000"></path></svg>