<svg t="1584005070412" class="icon" viewBox="0 0 1146 1024" version="1.1" xmlns="http://www.w3.org/2000/svg" p-id="20442" width="200" height="200"><path d="M211.01459 1023.999987a27.534311 27.534311 0 0 1-26.978976-33.15224c11.145455-54.074184 20.198716-120.688619 17.422038-141.675136C73.343035 757.400185 0 623.964678 0 482.134565 0 216.28382 257.236587 0 573.41623 0s573.41623 216.28382 573.416229 482.134565-257.236587 482.12165-573.416229 482.12165c-77.139981 0-151.916556-12.630655-222.340852-37.543265-19.604636 6.767345-77.269128 50.871318-121.786375 90.338885a27.430993 27.430993 0 0 1-18.274413 6.948152zM573.41623 55.107366C287.625064 55.107366 55.094451 246.672297 55.094451 482.134565c0 125.699553 66.963134 244.515529 183.686915 325.969046 9.879807 6.909407 26.836913 18.726431 12.6694 118.454361 82.499614-64.5739 103.61528-56.992924 113.650063-53.36387 65.774974 23.853599 135.889315 35.954747 208.36706 35.954747 285.791165 0 518.321778-191.552016 518.321778-427.014284S859.207395 55.107366 573.41623 55.107366z" fill="#1989fa" p-id="20443"></path></svg>