<svg t="1583995390026" class="icon" viewBox="0 0 1024 1024" version="1.1" xmlns="http://www.w3.org/2000/svg" p-id="5925" width="200" height="200"><path d="M933.701818 931.467636a417.373091 417.373091 0 0 0-159.511273-300.125091l-5.632-3.863272a33.605818 33.605818 0 0 0-17.594181-4.980364 28.811636 28.811636 0 0 0-34.210909 27.648 33.652364 33.652364 0 0 0 12.474181 25.972364l4.980364 3.537454a324.375273 324.375273 0 0 1 131.165091 252.509091v4.049455a34.164364 34.164364 0 0 0 68.282182 1.908363h0.698182zM823.668364 359.703273a311.854545 311.854545 0 0 0-623.429819 0 304.64 304.64 0 0 0 111.383273 235.566545 419.84 419.84 0 0 0-221.370182 340.433455l-0.372363 5.957818a1.070545 1.070545 0 0 0 0 0.372364v1.396363a28.997818 28.997818 0 0 0 57.949091 0v-0.884363h0.372363l0.465455-5.957819a356.491636 356.491636 0 0 1 219.880727-303.941818 369.058909 369.058909 0 0 0 143.313455 34.862546 312.226909 312.226909 0 0 0 134.981818-30.766546l31.557818-18.338909 25.832727-16.942545a304.965818 304.965818 0 0 0 119.202909-241.803637z m-311.854546 245.853091a247.761455 247.761455 0 0 1-249.064727-245.899637 249.111273 249.111273 0 0 1 498.036364 0 247.808 247.808 0 0 1-249.111273 245.899637z m0 0" fill="#ffffff" p-id="5926"></path></svg>