<svg t="1583996460013" class="icon" viewBox="0 0 1024 1024" version="1.1" xmlns="http://www.w3.org/2000/svg" p-id="19030" width="200" height="200"><path d="M804.53047 361.379641V301.138324C802.89218 143.077395 663.364415 0 509.774654 0 355.638797 0 220.616331 142.394774 219.421744 301.138324v60.241317c-70.309979 5.665756-117.001267 72.016532-117.001266 146.763549v395.374176c0 78.501433 61.231118 120.448503 136.524231 120.448503H785.007505a139.527765 139.527765 0 0 0 136.524232-142.189987V508.109059c0-76.248783-44.609293-143.452836-117.001267-146.729418zM277.922378 301.138324a234.139057 234.139057 0 1 1 468.073328 0v60.241317H277.922378V301.138324z m585.108726 602.34491c0 47.032598-42.663822 60.207186-87.785081 60.207187H248.672061c-45.121259 0-87.785081-13.174588-87.785081-60.207187V511.965869a93.382574 93.382574 0 0 1 87.785081-90.34491h526.573962A93.382574 93.382574 0 0 1 863.031104 511.965869v391.517365zM511.959042 572.207186a29.69402 29.69402 0 0 0-29.250317 30.103593v180.689821a29.284448 29.284448 0 1 0 58.500633 0v-180.689821a29.69402 29.69402 0 0 0-29.250316-30.103593z" fill="#ffffff" p-id="19031"></path></svg>