<svg t="1584205982208" class="icon" viewBox="0 0 1024 1024" version="1.1" xmlns="http://www.w3.org/2000/svg" p-id="6341" width="200" height="200"><path d="M512 1024C229.229714 1024 0 794.770286 0 512S229.229714 0 512 0s512 229.229714 512 512-229.229714 512-512 512z m0-48.761905c255.841524 0 463.238095-207.396571 463.238095-463.238095S767.841524 48.761905 512 48.761905 48.761905 256.158476 48.761905 512s207.396571 463.238095 463.238095 463.238095z m-70.436571-371.565714l282.112-282.112a44.324571 44.324571 0 1 1 62.683428 62.695619L472.905143 697.709714a44.324571 44.324571 0 0 1-64.195048-1.584762 45.080381 45.080381 0 0 1-1.584762-1.523809L244.126476 531.626667a44.324571 44.324571 0 0 1 62.683429-62.695619L441.563429 603.672381z" fill="#3EAFFF" p-id="6342"></path></svg>