<svg t="1584000090702" class="icon" viewBox="0 0 1024 1024" version="1.1" xmlns="http://www.w3.org/2000/svg" p-id="13194" width="200" height="200"><path d="M825.344 771.072l130.56 130.56c14.848 14.848 14.848 39.424 0 54.272-14.848 14.848-39.424 14.848-54.272 0l-130.56-130.56C692.736 890.88 593.92 927.232 491.52 926.72c-240.128 0-435.2-195.072-435.2-435.2s195.072-435.2 435.2-435.2 435.2 195.072 435.2 435.2c0.512 106.496-37.888 204.288-101.376 279.552z m-333.312 79.36c198.144 0 358.4-160.256 358.4-358.4s-160.256-358.4-358.4-358.4-358.4 160.256-358.4 358.4 160.256 358.4 358.4 358.4z" fill="#e6e6e6" p-id="13195"></path></svg>